PathFileType	4	(X/Y/Z)	C:/Users/beibeiliu/ov580/test_trc/User3\sequence.29_training_dense_right.trc
DataRate	CameraRate	NumFrames	NumMarkers	Units	OrigDataRate	OrigDataStartFrame	OrigNumFrames
120	120	20	19	mm	120	103	128
Frame#	Time	ThumbCMC			ThumbMCP			ThumbIP			ThumbTip			IndexMCP			IndexPIP			IndexTip			MiddleMCP			MiddlePIP			MiddleTip			RingMCP			RingPIP			RingTip			PinkyMCP			PinkyPIP			PinkyTip			BackHand1			BackHand2			BackHand3	
		X0	Y0	Z0	X1	Y1	Z1	X2	Y2	Z2	X3	Y3	Z3	X4	Y4	Z4	X5	Y5	Z5	X6	Y6	Z6	X7	Y7	Z7	X8	Y8	Z8	X9	Y9	Z9	X10	Y10	Z10	X11	Y11	Z11	X12	Y12	Z12	X13	Y13	Z13	X14	Y14	Z14	X15	Y15	Z15	X16	Y16	Z16	X17	Y17	Z17	X18	Y18	Z18	
102	0.85	276.643	38.7051	16.0155	297.096	52.9768	-6.29429	311.386	56.1382	-36.6297	304.727	51.1234	-57.9895	318.816	-6.49084	-26.4399	339.287	-8.71082	-51.886	336.661	15.1443	-75.4812	307.781	-21.415	-41.1326	324.005	-17.5965	-72.1562	312.286	15.5182	-93.2578	285.092	-16.9936	-53.4129	293.794	-5.67831	-81.6868	283.834	25.433	-89.4613	262.207	-11.8391	-59.6017	264.9	3.68793	-80.449	260.1	31.0001	-84.4883	260.508	-18.0728	-8.27536	235.897	-11.5336	15.4473	271.289	-0.145453	16.9455	
103	0.858333	275.09	29.541	16.9953	295.514	39.9367	-4.33723	309.085	44.6589	-31.2703	310.846	45.2259	-58.9762	303.67	-18.0624	-41.8645	325.478	-22.2339	-64.1661	335.983	-12.2108	-89.9334	286.934	-26.4166	-57.4869	305.021	-24.8223	-85.5798	311.224	-6.53322	-114.485	266.966	-16.7717	-67.3442	269.508	-6.12022	-92.3574	267.155	21.0126	-108.371	239.549	-8.31553	-68.776	243.465	5.41672	-85.1828	244.671	28.1576	-98.5222	244.183	-23.5118	-16.1216	228.222	-16.1202	11.1061	266.205	-7.10513	11.6719	
104	0.866667	270.267	16.7986	13.2485	298.083	26.4826	-6.48366	308.557	31.7678	-33.5245	310.559	37.7133	-55.357	292.052	-21.477	-50.3215	307.244	-30.2978	-75.4426	313.176	-32.1342	-100.949	273.996	-22.8258	-71.5133	278.603	-19.0848	-98.1815	285.519	-8.68552	-128.086	246.108	-8.37639	-73.9864	250.668	8.90591	-96.1319	245.484	35.378	-109.534	222.461	-1.62844	-66.8328	223.897	16.1854	-81.7214	228.903	37.0324	-97.947	232.818	-26.0551	-17.4903	219.763	-19.6227	9.75077	255.462	-15.0977	4.13501	
105	0.875	271.172	13.375	10.9636	293.815	24.8356	-9.58789	307.71	32.1549	-37.0585	308.374	37.6952	-60.1611	284.578	-19.5078	-58.8795	295.338	-25.057	-81.0109	301.422	-30.2691	-104.1	261.874	-13.5	-76.6363	264.905	-5.36094	-99.7039	269.567	9.53964	-130.351	238.789	1.07614	-74.9278	238.673	21.0133	-91.8665	235.131	44.0102	-101.653	213.824	2.3812	-64.8237	215.282	21.5011	-79.6529	213.275	37.2309	-92.6699	230.548	-25.9727	-21.8165	222.22	-23.1584	9.46986	258.255	-16.3853	-0.213799	
106	0.883333	269.611	27.3167	9.77706	284.834	40.7871	-12.9757	294.655	49.0453	-42.1711	293.473	55.8651	-62.018	278.067	-3.30493	-65.094	285.725	-5.73542	-86.8017	292.136	-9.50229	-113.746	253.649	-0.0626249	-80.292	252.699	12.8334	-104.942	248.44	33.9647	-132.057	233.796	4.31638	-75.0264	227.518	21.6642	-90.9726	220.312	44.6087	-102.703	209.995	-2.40859	-63.3837	204.297	14.55	-82.182	198.674	24.3986	-96.4726	232.04	-25.601	-22.7241	223.734	-23.5726	9.37403	260.302	-8.52547	-3.27554	
107	0.891667	249.738	54.8685	3.76475	254.707	69.1295	-22.7037	261.107	81.7772	-50.9389	259.827	89.8389	-72.0034	269.58	33.7632	-72.5749	274.284	38.1086	-98.8155	274.435	36.2994	-125.878	247.132	25.7624	-86.1443	236.39	37.923	-106.64	218.347	49.6562	-128.176	232.172	13.6633	-78.7692	216.875	21.6288	-101.204	204.008	37.1015	-115.636	215.932	-5.06413	-69.8201	209.621	-0.859198	-86.452	203.069	4.5459	-109.325	242.376	-8.5946	-25.6231	239.122	-8.7243	3.16528	259.641	19.478	-6.24528	
108	0.9	225.756	69.8664	-1.35794	225.032	91.013	-28.2439	222.762	106.76	-53.1848	218.786	109.425	-75.761	245.801	63.3511	-78.7547	241.645	68.7128	-107.478	237.812	71.0489	-131.929	234.535	47.2443	-85.4787	216.09	49.3248	-109.469	192.488	59.2221	-129.776	229.586	27.491	-86.5965	218.224	26.8279	-107.616	201.815	31.0285	-130.011	225.792	2.81524	-75.1162	221.53	1.72716	-90.6401	218.651	-4.84863	-114.239	246.259	13.3974	-29.666	246.377	13.5823	-1.41872	252.438	46.1036	-11.9808	
109	0.908333	203.497	78.6536	-2.67405	193.95	93.1557	-25.7777	185.235	107.536	-55.138	178.623	112.435	-74.7536	215.093	80.2615	-80.4885	203.505	80.6813	-104.43	193.417	78.3184	-132.004	214.441	58.0746	-92.8772	195.918	61.0446	-110.595	175.596	55.1556	-132.897	225.674	38.51	-88.7538	218.806	37.349	-108.976	206.642	36.9382	-134.007	232.774	18.302	-74.8854	232.424	10.9822	-95.2441	234.625	6.99462	-116.025	243.956	36.3513	-33.8153	247.602	30.8773	-5.8603	234.286	64.0254	-14.4714	
110	0.916667	180.157	75.1477	-4.03576	162.929	84.3806	-24.1054	147.207	96.3695	-45.5191	136.195	102.434	-66.0789	183.63	75.6578	-80.337	165.129	69.5663	-102.961	151.309	65.3762	-122.299	194.099	67.555	-89.4519	177.782	58.6606	-115.205	161.933	52.7379	-138.727	215.367	51.5176	-86.677	208.033	53.1455	-113.35	202.592	49.3835	-134.226	231.937	32.5356	-74.6425	234.052	30.2737	-94.438	245.773	25.3324	-114.904	233.248	52.31	-34.9967	237.751	48.6689	-5.69003	213.708	76.5361	-17.5576	
111	0.925	167.021	65.6019	-2.02859	145.889	70.6025	-19.3739	125.319	78.3013	-38.8788	112.268	79.5849	-57.8297	160.355	69.2105	-78.9233	142.969	57.8556	-98.1094	128.605	46.7547	-115.293	181.764	67.6287	-89.8382	167.808	63.0988	-111.848	154.728	56.6857	-143.818	204.961	57.6891	-86.8339	198.361	58.8849	-110.179	196.163	57.7544	-137.748	222.51	43.0696	-71.2468	230.137	42.3896	-92.8406	241.119	43.2441	-110.913	216.31	65.645	-37.752	229.549	61.0024	-9.22052	195.618	79.4814	-12.9364	
112	0.933333	154.588	57.9853	0.0437968	134.649	54.4571	-20.956	112.704	52.5227	-38.3597	97.7554	48.3586	-57.796	143.767	62.2323	-74.5245	131.299	49.4927	-97.929	121.784	39.1311	-113.633	165.783	68.1819	-90.3093	161.521	64.7486	-111.428	147.739	62.9294	-141.417	190.791	64.6143	-85.4471	188.9	65.1997	-109.608	188.224	64.902	-136.974	217.112	51.6401	-70.3396	226.13	54.2197	-91.3273	232.544	58.25	-111.474	205.912	72.3858	-37.9015	215.365	72.2393	-8.80215	178.58	77.1573	-14.4786	
113	0.941667	143.503	42.4457	1.4423	126.406	26.5732	-18.3523	109.764	16.3869	-44.1838	102.144	5.11074	-59.1018	135.043	56.8004	-74.903	119.596	48.1867	-94.7638	112.139	40.381	-122.218	161.499	67.3507	-86.3931	153.313	67.2567	-115.758	143.953	67.0017	-138.601	180.108	66.6887	-83.051	183.356	71.0168	-107.097	178.747	73.1713	-134.739	209.208	60.5801	-72.0308	213.347	64.5033	-92.1594	223.403	69.4934	-107.911	189.721	73.0845	-36.2146	198.436	74.8268	-3.64734	162.672	71.0044	-11.4217	
114	0.95	139.371	31.4875	-3.9864	129.912	12.2009	-22.2187	119.397	-3.03986	-43.8165	111.331	-16.5611	-64.5813	127.879	51.4435	-75.1386	114.544	46.5979	-98.9653	106.163	43.6584	-122.147	154.989	68.8252	-86.8463	145.482	68.3779	-109.962	137.71	70.8297	-138.639	173.764	68.3836	-81.4868	176.214	75.0876	-107.167	177.137	77.8995	-128.511	205.346	62.3639	-68.8002	211.58	65.45	-90.8521	220.336	69.7179	-106.921	183.479	73.2801	-30.8757	185.5	75.9354	-6.52532	152.825	64.8245	-11.3867	
115	0.958333	139.641	32.0134	-1.7342	126.573	11.0566	-22.3674	114.831	-5.08225	-42.9249	113.021	-18.1101	-63.5569	135.718	54.4923	-77.2996	119.603	50.0748	-101.769	107.467	46.9047	-125.141	157.855	68.7851	-86.0581	153.735	72.2608	-115.836	143.405	74.3003	-144.416	184.333	66.7484	-78.6092	181.372	73.4092	-104.125	185.33	77.5627	-129.731	207.673	58.4377	-70.2981	215.398	59.0619	-91.3759	223.75	62.1114	-108.819	186.324	70.7763	-30.4438	189.695	72.7535	-3.38385	157.398	68.2226	-15.8565	
116	0.966667	148.93	40.699	-8.35269	129.843	21.7992	-26.6629	112.137	7.64792	-46.616	108.186	-4.23557	-62.4018	150.909	59.7882	-81.0921	134.516	56.7708	-107.238	129.581	53.3215	-132.035	174.628	67.9267	-90.1827	174.798	68.392	-119.153	170.162	69.7982	-147.025	198.968	61.6217	-84.0843	202.864	64.895	-106.517	204.883	63.9032	-130.717	220.427	47.9191	-70.988	229.352	43.7122	-86.3995	236.442	40.6976	-110.092	200.409	67.3331	-34.8954	203.797	70.3289	-0.985889	169.635	70.8095	-14.646	
117	0.975	158.335	42.4727	-7.43731	135.937	28.798	-25.0975	122.954	18.3188	-48.7723	109.428	7.2703	-67.0932	161.06	63.5103	-81.7047	149.611	60.3082	-105.172	143.676	55.0902	-130.224	191.018	65.6079	-87.6078	187.341	65.3306	-111.91	184.821	61.9314	-145.91	214.764	54.6034	-80.7999	215.549	54.1566	-105.087	215.747	50.676	-133.806	234.505	37.0932	-69.5593	238.91	31.6823	-84.6709	244.427	23.988	-109.372	213.688	61.6239	-30.9603	220.34	59.3449	1.41644	184.426	68.0672	-17.085	
118	0.983333	160.009	40.9793	-1.32608	140.985	29.9582	-26.7004	123.458	21.3789	-45.4595	113.963	13.2111	-66.5526	169.326	60.5532	-74.7956	157.193	58.3347	-100.743	148.805	51.2974	-125.932	197.346	60.618	-80.8284	194.189	60.6945	-109.34	193.217	53.5572	-142.101	221.067	49.7539	-79.2004	222.673	47.3051	-105.342	219.36	42.559	-129.437	237.168	31.7828	-60.795	246.141	23.2484	-85.3355	247.641	17.4429	-103.323	221.752	56.0002	-23.5785	225.176	52.3945	5.3676	191.722	64.6907	-12.4087	
119	0.991667	158.613	34.662	-1.84104	137.698	26.706	-23.7235	123.535	19.6105	-45.3153	112.882	10.6545	-64.5337	167.77	52.839	-73.6377	159.063	48.8749	-102.108	150.724	42.6008	-124.565	196.535	54.5967	-83.8637	193.495	52.0862	-110.703	193.2	44.6593	-139.022	216.208	43.8542	-74.3128	221.376	41.5214	-103.378	218.821	35.8239	-125.308	238.339	26.5883	-57.3142	243.885	21.7746	-83.3095	248.857	14.7807	-103.111	217.565	48.8611	-21.4434	220.051	49.5244	4.44873	186.379	56.8127	-10.2717	
120	1	153.889	36.6891	-2.16207	131.663	29.2858	-26.3546	118.678	20.6121	-48.0598	107.944	12.2577	-65.4158	165.09	51.8633	-81.2768	153.073	48.4711	-103.411	147.965	41.9851	-125.694	190.529	53.91	-86.7025	191.073	51.2494	-110.782	187.408	44.7993	-143.116	213.905	43.6246	-76.473	218.506	42.8544	-101.671	218.963	36.0803	-127.54	234.953	26.5564	-59.6149	242.197	22.9928	-80.1005	248.633	16.2818	-104.127	213.217	50.351	-27.9114	216.056	50.7135	6.03024	184.626	59.2275	-12.4501	
121	1.00833	151.422	38.2109	-5.39676	131.343	28.3469	-22.601	115.133	21.2844	-50.7296	103.737	12.3724	-66.6547	163.824	52.2237	-80.3855	148.289	48.215	-107.213	142.806	42.2201	-130.961	192.893	52.5572	-85.3435	187.423	52.1258	-113.435	185.062	43.0313	-148.46	214.345	43.6867	-78.4968	216.527	42.0229	-106.483	213.254	37.2599	-132.789	232.334	27.0912	-64.1175	238.339	24.112	-83.2879	248.469	16.6751	-105.265	212.624	50.7162	-29.3818	216.77	48.8759	0.703658	185.416	57.3491	-16.4797	
